<?xml version="1.0" encoding="utf-8" standalone="no"?>
<!DOCTYPE svg PUBLIC "-//W3C//DTD SVG 1.1//EN"
  "http://www.w3.org/Graphics/SVG/1.1/DTD/svg11.dtd">
<svg xmlns:xlink="http://www.w3.org/1999/xlink" width="1204.56pt" height="753.12pt" viewBox="0 0 1204.56 753.12" xmlns="http://www.w3.org/2000/svg" version="1.1">
 <metadata>
  <rdf:RDF xmlns:dc="http://purl.org/dc/elements/1.1/" xmlns:cc="http://creativecommons.org/ns#" xmlns:rdf="http://www.w3.org/1999/02/22-rdf-syntax-ns#">
   <cc:Work>
    <dc:type rdf:resource="http://purl.org/dc/dcmitype/StillImage"/>
    <dc:date>2026-04-28T12:32:41.687405</dc:date>
    <dc:format>image/svg+xml</dc:format>
    <dc:creator>
     <cc:Agent>
      <dc:title>Matplotlib v3.10.8, https://matplotlib.org/</dc:title>
     </cc:Agent>
    </dc:creator>
   </cc:Work>
  </rdf:RDF>
 </metadata>
 <defs>
  <style type="text/css">*{stroke-linejoin: round; stroke-linecap: butt}</style>
 </defs>
 <g id="figure_1">
  <g id="patch_1">
   <path d="M 0 753.12 
L 1204.56 753.12 
L 1204.56 -0 
L 0 -0 
z
" style="fill: #f1f5f9"/>
  </g>
  <g id="axes_1">
   <g id="patch_2">
    <path d="M 44.809056 184.640544 
L 338.540544 184.640544 
Q 340.682832 184.640544 340.682832 183.310848 
L 340.682832 104.415552 
Q 340.682832 103.085856 338.540544 103.085856 
L 44.809056 103.085856 
Q 42.666768 103.085856 42.666768 104.415552 
L 42.666768 183.310848 
Q 42.666768 184.640544 44.809056 184.640544 
z
" clip-path="url(#p736e3a3994)" style="fill: #e0f2fe; stroke: #0369a1; stroke-width: 1.6; stroke-linejoin: miter"/>
   </g>
   <g id="patch_3">
    <path d="M 191.6748 186.494883 
Q 191.6748 197.051831 191.6748 205.596317 
" clip-path="url(#p736e3a3994)" style="fill: none; stroke: #334155; stroke-width: 1.8; stroke-linecap: round"/>
    <path d="M 194.0748 200.796317 
L 191.6748 205.596317 
L 189.2748 200.796317 
z
" clip-path="url(#p736e3a3994)" style="fill: #334155; stroke: #334155; stroke-width: 1.8; stroke-linecap: round"/>
   </g>
   <g id="patch_4">
    <path d="M 44.809056 291.016224 
L 338.540544 291.016224 
Q 340.682832 291.016224 340.682832 289.686528 
L 340.682832 210.791232 
Q 340.682832 209.461536 338.540544 209.461536 
L 44.809056 209.461536 
Q 42.666768 209.461536 42.666768 210.791232 
L 42.666768 289.686528 
Q 42.666768 291.016224 44.809056 291.016224 
z
" clip-path="url(#p736e3a3994)" style="fill: #e0f2fe; stroke: #0369a1; stroke-width: 1.6; stroke-linejoin: miter"/>
   </g>
   <g id="patch_5">
    <path d="M 191.6748 292.870563 
Q 191.6748 303.427511 191.6748 311.971997 
" clip-path="url(#p736e3a3994)" style="fill: none; stroke: #334155; stroke-width: 1.8; stroke-linecap: round"/>
    <path d="M 194.0748 307.171997 
L 191.6748 311.971997 
L 189.2748 307.171997 
z
" clip-path="url(#p736e3a3994)" style="fill: #334155; stroke: #334155; stroke-width: 1.8; stroke-linecap: round"/>
   </g>
   <g id="patch_6">
    <path d="M 44.809056 397.391904 
L 338.540544 397.391904 
Q 340.682832 397.391904 340.682832 396.062208 
L 340.682832 317.166912 
Q 340.682832 315.837216 338.540544 315.837216 
L 44.809056 315.837216 
Q 42.666768 315.837216 42.666768 317.166912 
L 42.666768 396.062208 
Q 42.666768 397.391904 44.809056 397.391904 
z
" clip-path="url(#p736e3a3994)" style="fill: #e0f2fe; stroke: #0369a1; stroke-width: 1.6; stroke-linejoin: miter"/>
   </g>
   <g id="patch_7">
    <path d="M 191.6748 399.246243 
Q 191.6748 409.803191 191.6748 418.347677 
" clip-path="url(#p736e3a3994)" style="fill: none; stroke: #334155; stroke-width: 1.8; stroke-linecap: round"/>
    <path d="M 194.0748 413.547677 
L 191.6748 418.347677 
L 189.2748 413.547677 
z
" clip-path="url(#p736e3a3994)" style="fill: #334155; stroke: #334155; stroke-width: 1.8; stroke-linecap: round"/>
   </g>
   <g id="patch_8">
    <path d="M 44.809056 503.767584 
L 338.540544 503.767584 
Q 340.682832 503.767584 340.682832 502.437888 
L 340.682832 423.542592 
Q 340.682832 422.212896 338.540544 422.212896 
L 44.809056 422.212896 
Q 42.666768 422.212896 42.666768 423.542592 
L 42.666768 502.437888 
Q 42.666768 503.767584 44.809056 503.767584 
z
" clip-path="url(#p736e3a3994)" style="fill: #e0f2fe; stroke: #0369a1; stroke-width: 1.6; stroke-linejoin: miter"/>
   </g>
   <g id="patch_9">
    <path d="M 401.619024 137.362464 
L 791.039376 137.362464 
Q 792.943632 137.362464 792.943632 136.180512 
L 792.943632 104.267808 
Q 792.943632 103.085856 791.039376 103.085856 
L 401.619024 103.085856 
Q 399.714768 103.085856 399.714768 104.267808 
L 399.714768 136.180512 
Q 399.714768 137.362464 401.619024 137.362464 
z
" clip-path="url(#p736e3a3994)" style="fill: #bfdbfe; stroke: #1d4ed8; stroke-width: 1.6; stroke-linejoin: miter"/>
   </g>
   <g id="patch_10">
    <path d="M 401.619024 180.208224 
L 791.039376 180.208224 
Q 792.943632 180.208224 792.943632 179.026272 
L 792.943632 147.113568 
Q 792.943632 145.931616 791.039376 145.931616 
L 401.619024 145.931616 
Q 399.714768 145.931616 399.714768 147.113568 
L 399.714768 179.026272 
Q 399.714768 180.208224 401.619024 180.208224 
z
" clip-path="url(#p736e3a3994)" style="fill: #bbf7d0; stroke-dasharray: 5.92,2.56; stroke-dashoffset: 0; stroke: #15803d; stroke-width: 1.6; stroke-linejoin: miter"/>
   </g>
   <g id="patch_11">
    <path d="M 401.619024 223.053984 
L 791.039376 223.053984 
Q 792.943632 223.053984 792.943632 221.872032 
L 792.943632 189.959328 
Q 792.943632 188.777376 791.039376 188.777376 
L 401.619024 188.777376 
Q 399.714768 188.777376 399.714768 189.959328 
L 399.714768 221.872032 
Q 399.714768 223.053984 401.619024 223.053984 
z
" clip-path="url(#p736e3a3994)" style="fill: #fed7aa; stroke-dasharray: 1.6,2.64; stroke-dashoffset: 0; stroke: #c2410c; stroke-width: 1.6; stroke-linejoin: miter"/>
   </g>
   <g id="patch_12">
    <path d="M 401.619024 265.899744 
L 791.039376 265.899744 
Q 792.943632 265.899744 792.943632 264.717792 
L 792.943632 232.805088 
Q 792.943632 231.623136 791.039376 231.623136 
L 401.619024 231.623136 
Q 399.714768 231.623136 399.714768 232.805088 
L 399.714768 264.717792 
Q 399.714768 265.899744 401.619024 265.899744 
z
" clip-path="url(#p736e3a3994)" style="fill: #bfdbfe; stroke: #1d4ed8; stroke-width: 1.6; stroke-linejoin: miter"/>
   </g>
   <g id="patch_13">
    <path d="M 401.619024 308.745504 
L 791.039376 308.745504 
Q 792.943632 308.745504 792.943632 307.563552 
L 792.943632 275.650848 
Q 792.943632 274.468896 791.039376 274.468896 
L 401.619024 274.468896 
Q 399.714768 274.468896 399.714768 275.650848 
L 399.714768 307.563552 
Q 399.714768 308.745504 401.619024 308.745504 
z
" clip-path="url(#p736e3a3994)" style="fill: #bfdbfe; stroke: #1d4ed8; stroke-width: 1.6; stroke-linejoin: miter"/>
   </g>
   <g id="patch_14">
    <path d="M 342.442444 462.99024 
Q 353.536002 462.99024 362.617099 462.99024 
" clip-path="url(#p736e3a3994)" style="fill: none; stroke: #334155; stroke-width: 1.8; stroke-linecap: round"/>
    <path d="M 357.817099 460.59024 
L 362.617099 462.99024 
L 357.817099 465.39024 
z
" clip-path="url(#p736e3a3994)" style="fill: #334155; stroke: #334155; stroke-width: 1.8; stroke-linecap: round"/>
   </g>
   <g id="line2d_1">
    <path d="M 371.38896 462.99024 
L 371.38896 291.6072 
" clip-path="url(#p736e3a3994)" style="fill: none; stroke: #334155; stroke-width: 1.6; stroke-linecap: square"/>
   </g>
   <g id="patch_15">
    <path d="M 373.386895 120.22416 
Q 385.66941 120.22416 396.386678 120.22416 
" clip-path="url(#p736e3a3994)" style="fill: none; stroke: #334155; stroke-width: 1.4; stroke-linecap: round"/>
    <path d="M 392.386678 118.22416 
L 396.386678 120.22416 
L 392.386678 122.22416 
z
" clip-path="url(#p736e3a3994)" style="fill: #334155; stroke: #334155; stroke-width: 1.4; stroke-linecap: round"/>
   </g>
   <g id="patch_16">
    <path d="M 373.386895 163.06992 
Q 385.66941 163.06992 396.386678 163.06992 
" clip-path="url(#p736e3a3994)" style="fill: none; stroke: #334155; stroke-width: 1.4; stroke-linecap: round"/>
    <path d="M 392.386678 161.06992 
L 396.386678 163.06992 
L 392.386678 165.06992 
z
" clip-path="url(#p736e3a3994)" style="fill: #334155; stroke: #334155; stroke-width: 1.4; stroke-linecap: round"/>
   </g>
   <g id="patch_17">
    <path d="M 373.386895 205.91568 
Q 385.66941 205.91568 396.386678 205.91568 
" clip-path="url(#p736e3a3994)" style="fill: none; stroke: #334155; stroke-width: 1.4; stroke-linecap: round"/>
    <path d="M 392.386678 203.91568 
L 396.386678 205.91568 
L 392.386678 207.91568 
z
" clip-path="url(#p736e3a3994)" style="fill: #334155; stroke: #334155; stroke-width: 1.4; stroke-linecap: round"/>
   </g>
   <g id="patch_18">
    <path d="M 373.386895 248.76144 
Q 385.66941 248.76144 396.386678 248.76144 
" clip-path="url(#p736e3a3994)" style="fill: none; stroke: #334155; stroke-width: 1.4; stroke-linecap: round"/>
    <path d="M 392.386678 246.76144 
L 396.386678 248.76144 
L 392.386678 250.76144 
z
" clip-path="url(#p736e3a3994)" style="fill: #334155; stroke: #334155; stroke-width: 1.4; stroke-linecap: round"/>
   </g>
   <g id="patch_19">
    <path d="M 373.386895 291.6072 
Q 385.66941 291.6072 396.386678 291.6072 
" clip-path="url(#p736e3a3994)" style="fill: none; stroke: #334155; stroke-width: 1.4; stroke-linecap: round"/>
    <path d="M 392.386678 289.6072 
L 396.386678 291.6072 
L 392.386678 293.6072 
z
" clip-path="url(#p736e3a3994)" style="fill: #334155; stroke: #334155; stroke-width: 1.4; stroke-linecap: round"/>
   </g>
   <g id="patch_20">
    <path d="M 401.857056 419.553504 
L 790.801344 419.553504 
Q 792.943632 419.553504 792.943632 418.223808 
L 792.943632 346.715712 
Q 792.943632 345.386016 790.801344 345.386016 
L 401.857056 345.386016 
Q 399.714768 345.386016 399.714768 346.715712 
L 399.714768 418.223808 
Q 399.714768 419.553504 401.857056 419.553504 
z
" clip-path="url(#p736e3a3994)" style="fill: #e2e8f0; stroke: #334155; stroke-width: 1.6; stroke-linejoin: miter"/>
   </g>
   <g id="line2d_2">
    <path d="M 811.74816 120.22416 
L 811.74816 291.6072 
" clip-path="url(#p736e3a3994)" style="fill: none; stroke: #334155; stroke-width: 1.6; stroke-linecap: square"/>
   </g>
   <g id="line2d_3">
    <path d="M 792.7056 120.22416 
L 811.74816 120.22416 
" clip-path="url(#p736e3a3994)" style="fill: none; stroke: #334155; stroke-linecap: square"/>
   </g>
   <g id="line2d_4">
    <path d="M 792.7056 163.06992 
L 811.74816 163.06992 
" clip-path="url(#p736e3a3994)" style="fill: none; stroke: #334155; stroke-linecap: square"/>
   </g>
   <g id="line2d_5">
    <path d="M 792.7056 205.91568 
L 811.74816 205.91568 
" clip-path="url(#p736e3a3994)" style="fill: none; stroke: #334155; stroke-linecap: square"/>
   </g>
   <g id="line2d_6">
    <path d="M 792.7056 248.76144 
L 811.74816 248.76144 
" clip-path="url(#p736e3a3994)" style="fill: none; stroke: #334155; stroke-linecap: square"/>
   </g>
   <g id="line2d_7">
    <path d="M 792.7056 291.6072 
L 811.74816 291.6072 
" clip-path="url(#p736e3a3994)" style="fill: none; stroke: #334155; stroke-linecap: square"/>
   </g>
   <g id="line2d_8">
    <path d="M 811.74816 291.6072 
L 811.74816 327.06576 
" clip-path="url(#p736e3a3994)" style="fill: none; stroke: #334155; stroke-width: 1.6; stroke-linecap: square"/>
   </g>
   <g id="line2d_9">
    <path d="M 811.74816 327.06576 
L 596.3292 327.06576 
" clip-path="url(#p736e3a3994)" style="fill: none; stroke: #334155; stroke-width: 1.6; stroke-linecap: square"/>
   </g>
   <g id="patch_21">
    <path d="M 596.3292 329.063154 
Q 596.3292 336.299202 596.3292 341.634594 
" clip-path="url(#p736e3a3994)" style="fill: none; stroke: #334155; stroke-width: 1.7; stroke-linecap: round"/>
    <path d="M 598.7292 336.834594 
L 596.3292 341.634594 
L 593.9292 336.834594 
z
" clip-path="url(#p736e3a3994)" style="fill: #334155; stroke: #334155; stroke-width: 1.7; stroke-linecap: round"/>
   </g>
   <g id="patch_22">
    <path d="M 401.857056 479.389824 
L 790.801344 479.389824 
Q 792.943632 479.389824 792.943632 478.060128 
L 792.943632 431.668512 
Q 792.943632 430.338816 790.801344 430.338816 
L 401.857056 430.338816 
Q 399.714768 430.338816 399.714768 431.668512 
L 399.714768 478.060128 
Q 399.714768 479.389824 401.857056 479.389824 
z
" clip-path="url(#p736e3a3994)" style="fill: #fee2e2; stroke: #b91c1c; stroke-width: 1.6; stroke-linejoin: miter"/>
   </g>
   <g id="patch_23">
    <path d="M 596.3292 421.404957 
Q 596.3292 424.945807 596.3292 426.474195 
" clip-path="url(#p736e3a3994)" style="fill: none; stroke: #334155; stroke-width: 1.8; stroke-linecap: round"/>
    <path d="M 598.7292 421.674195 
L 596.3292 426.474195 
L 593.9292 421.674195 
z
" clip-path="url(#p736e3a3994)" style="fill: #334155; stroke: #334155; stroke-width: 1.8; stroke-linecap: round"/>
   </g>
   <g id="patch_24">
    <path d="M 860.068656 276.611184 
L 1153.800144 276.611184 
Q 1155.942432 276.611184 1155.942432 275.281488 
L 1155.942432 188.998992 
Q 1155.942432 187.669296 1153.800144 187.669296 
L 860.068656 187.669296 
Q 857.926368 187.669296 857.926368 188.998992 
L 857.926368 275.281488 
Q 857.926368 276.611184 860.068656 276.611184 
z
" clip-path="url(#p736e3a3994)" style="fill: #ede9fe; stroke: #6d28d9; stroke-width: 1.6; stroke-linejoin: miter"/>
   </g>
   <g id="patch_25">
    <path d="M 860.068656 394.806384 
L 1153.800144 394.806384 
Q 1155.942432 394.806384 1155.942432 393.476688 
L 1155.942432 307.194192 
Q 1155.942432 305.864496 1153.800144 305.864496 
L 860.068656 305.864496 
Q 857.926368 305.864496 857.926368 307.194192 
L 857.926368 393.476688 
Q 857.926368 394.806384 860.068656 394.806384 
z
" clip-path="url(#p736e3a3994)" style="fill: #fae8ff; stroke: #a21caf; stroke-width: 1.6; stroke-linejoin: miter"/>
   </g>
   <g id="patch_26">
    <path d="M 1006.9344 278.465342 
Q 1006.9344 291.2384 1006.9344 301.998997 
" clip-path="url(#p736e3a3994)" style="fill: none; stroke: #334155; stroke-width: 1.8; stroke-linecap: round"/>
    <path d="M 1009.3344 297.198997 
L 1006.9344 301.998997 
L 1004.5344 297.198997 
z
" clip-path="url(#p736e3a3994)" style="fill: #334155; stroke: #334155; stroke-width: 1.8; stroke-linecap: round"/>
   </g>
   <g id="patch_27">
    <path d="M 836.363203 232.14024 
Q 846.264491 232.14024 854.153318 232.14024 
" clip-path="url(#p736e3a3994)" style="fill: none; stroke: #334155; stroke-width: 1.8; stroke-linecap: round"/>
    <path d="M 849.353318 229.74024 
L 854.153318 232.14024 
L 849.353318 234.54024 
z
" clip-path="url(#p736e3a3994)" style="fill: #334155; stroke: #334155; stroke-width: 1.8; stroke-linecap: round"/>
   </g>
   <g id="line2d_10">
    <path d="M 792.7056 454.86432 
L 834.3612 454.86432 
" clip-path="url(#p736e3a3994)" style="fill: none; stroke: #334155; stroke-width: 1.8; stroke-linecap: square"/>
   </g>
   <g id="line2d_11">
    <path d="M 834.3612 454.86432 
L 834.3612 232.14024 
" clip-path="url(#p736e3a3994)" style="fill: none; stroke: #334155; stroke-width: 1.8; stroke-linecap: square"/>
   </g>
   <g id="patch_28">
    <path d="M 81.585 581.18544 
L 182.7486 581.18544 
L 182.7486 556.06896 
L 81.585 556.06896 
z
" clip-path="url(#p736e3a3994)" style="fill: #fef9c3"/>
   </g>
   <g id="patch_29">
    <path d="M 248.2074 581.18544 
L 349.371 581.18544 
L 349.371 556.06896 
L 248.2074 556.06896 
z
" clip-path="url(#p736e3a3994)" style="fill: #fef9c3"/>
   </g>
   <g id="patch_30">
    <path d="M 420.7806 581.18544 
L 521.9442 581.18544 
L 521.9442 556.06896 
L 420.7806 556.06896 
z
" clip-path="url(#p736e3a3994)" style="fill: #fef9c3"/>
   </g>
   <g id="patch_31">
    <path d="M 593.3538 581.18544 
L 694.5174 581.18544 
L 694.5174 556.06896 
L 593.3538 556.06896 
z
" clip-path="url(#p736e3a3994)" style="fill: #fef9c3"/>
   </g>
   <g id="patch_32">
    <path d="M 765.927 581.18544 
L 867.0906 581.18544 
L 867.0906 556.06896 
L 765.927 556.06896 
z
" clip-path="url(#p736e3a3994)" style="fill: #fef9c3"/>
   </g>
   <g id="patch_33">
    <path d="M 938.5002 581.18544 
L 1039.6638 581.18544 
L 1039.6638 556.06896 
L 938.5002 556.06896 
z
" clip-path="url(#p736e3a3994)" style="fill: #fef9c3"/>
   </g>
   <g id="patch_34">
    <path d="M 1093.221 581.18544 
L 1194.3846 581.18544 
L 1194.3846 556.06896 
L 1093.221 556.06896 
z
" clip-path="url(#p736e3a3994)" style="fill: #fef9c3"/>
   </g>
   <g id="text_1">
    <text style="font-weight: 700; font-size: 20px; font-family: 'DejaVu Sans', 'Bitstream Vera Sans', 'Computer Modern Sans Serif', 'Lucida Grande', 'Verdana', 'Geneva', 'Lucid', 'Arial', 'Helvetica', 'Avant Garde', sans-serif; text-anchor: middle; fill: #0f172a" x="602.28" y="31.18675" transform="rotate(-0 602.28 31.18675)">REACH benchmark architecture</text>
   </g>
   <g id="text_2">
    <text style="font-size: 10.6px; font-family: 'DejaVu Sans', 'Bitstream Vera Sans', 'Computer Modern Sans Serif', 'Lucida Grande', 'Verdana', 'Geneva', 'Lucid', 'Arial', 'Helvetica', 'Avant Garde', sans-serif; text-anchor: middle; fill: #64748b" x="602.28" y="57.403017" transform="rotate(-0 602.28 57.403017)">12-phase reproducible pipeline · 10 datasets · 5 tracks · 10 methods · 1,110 units · 11,100 evaluations</text>
   </g>
   <g id="text_3">
    <g id="patch_35">
     <path d="M 106.620581 83.983556 
L 276.729019 83.983556 
Q 278.979019 83.983556 278.979019 81.733556 
L 278.979019 73.023244 
Q 278.979019 70.773244 276.729019 70.773244 
L 106.620581 70.773244 
Q 104.370581 70.773244 104.370581 73.023244 
L 104.370581 81.733556 
Q 104.370581 83.983556 106.620581 83.983556 
z
" style="fill: #ffffff; stroke: #0369a1; stroke-width: 0.8; stroke-linejoin: miter"/>
    </g>
    <text style="font-weight: 700; font-size: 9px; font-family: 'DejaVu Sans', 'Bitstream Vera Sans', 'Computer Modern Sans Serif', 'Lucida Grande', 'Verdana', 'Geneva', 'Lucid', 'Arial', 'Helvetica', 'Avant Garde', sans-serif; text-anchor: middle; fill: #0369a1" x="191.6748" y="79.861837" transform="rotate(-0 191.6748 79.861837)">DATA PREPARATION  (Phases 0–3)</text>
   </g>
   <g id="text_4">
    <g id="patch_36">
     <path d="M 469.574297 83.983556 
L 734.985703 83.983556 
Q 737.235703 83.983556 737.235703 81.733556 
L 737.235703 73.023244 
Q 737.235703 70.773244 734.985703 70.773244 
L 469.574297 70.773244 
Q 467.324297 70.773244 467.324297 73.023244 
L 467.324297 81.733556 
Q 467.324297 83.983556 469.574297 83.983556 
z
" style="fill: #ffffff; stroke: #334155; stroke-width: 0.8; stroke-linejoin: miter"/>
    </g>
    <text style="font-weight: 700; font-size: 9px; font-family: 'DejaVu Sans', 'Bitstream Vera Sans', 'Computer Modern Sans Serif', 'Lucida Grande', 'Verdana', 'Geneva', 'Lucid', 'Arial', 'Helvetica', 'Avant Garde', sans-serif; text-anchor: middle; fill: #334155" x="602.28" y="79.861837" transform="rotate(-0 602.28 79.861837)">TRACK CONSTRUCTION &amp; EXECUTION  (Phases 4–10)</text>
   </g>
   <g id="text_5">
    <g id="patch_37">
     <path d="M 918.108872 83.983556 
L 1107.661528 83.983556 
Q 1109.911528 83.983556 1109.911528 81.733556 
L 1109.911528 73.023244 
Q 1109.911528 70.773244 1107.661528 70.773244 
L 918.108872 70.773244 
Q 915.858872 70.773244 915.858872 73.023244 
L 915.858872 81.733556 
Q 915.858872 83.983556 918.108872 83.983556 
z
" style="fill: #ffffff; stroke: #6d28d9; stroke-width: 0.8; stroke-linejoin: miter"/>
    </g>
    <text style="font-weight: 700; font-size: 9px; font-family: 'DejaVu Sans', 'Bitstream Vera Sans', 'Computer Modern Sans Serif', 'Lucida Grande', 'Verdana', 'Geneva', 'Lucid', 'Arial', 'Helvetica', 'Avant Garde', sans-serif; text-anchor: middle; fill: #6d28d9" x="1012.8852" y="79.861837" transform="rotate(-0 1012.8852 79.861837)">ANALYSIS &amp; FIGURES  (Phases 11–12)</text>
   </g>
   <g id="text_6">
    <text style="font-weight: 700; font-size: 10px; font-family: 'DejaVu Sans', 'Bitstream Vera Sans', 'Computer Modern Sans Serif', 'Lucida Grande', 'Verdana', 'Geneva', 'Lucid', 'Arial', 'Helvetica', 'Avant Garde', sans-serif; text-anchor: start; fill: #0f172a" x="97.65216" y="123.390277" transform="rotate(-0 97.65216 123.390277)">Environment Setup</text>
   </g>
   <g id="text_7">
    <text style="font-size: 8px; font-family: 'DejaVu Sans', 'Bitstream Vera Sans', 'Computer Modern Sans Serif', 'Lucida Grande', 'Verdana', 'Geneva', 'Lucid', 'Arial', 'Helvetica', 'Avant Garde', sans-serif; fill: #64748b" transform="translate(97.65216 141.07731)">pinned Python + R</text>
    <text style="font-size: 8px; font-family: 'DejaVu Sans', 'Bitstream Vera Sans', 'Computer Modern Sans Serif', 'Lucida Grande', 'Verdana', 'Geneva', 'Lucid', 'Arial', 'Helvetica', 'Avant Garde', sans-serif; fill: #64748b" transform="translate(97.65216 150.03556)">seed control · GPU drivers</text>
   </g>
   <g id="text_8">
    <text style="font-weight: 700; font-size: 10px; font-family: 'DejaVu Sans', 'Bitstream Vera Sans', 'Computer Modern Sans Serif', 'Lucida Grande', 'Verdana', 'Geneva', 'Lucid', 'Arial', 'Helvetica', 'Avant Garde', sans-serif; text-anchor: start; fill: #0f172a" x="97.65216" y="229.765957" transform="rotate(-0 97.65216 229.765957)">Dataset Ingestion</text>
   </g>
   <g id="text_9">
    <text style="font-size: 8px; font-family: 'DejaVu Sans', 'Bitstream Vera Sans', 'Computer Modern Sans Serif', 'Lucida Grande', 'Verdana', 'Geneva', 'Lucid', 'Arial', 'Helvetica', 'Avant Garde', sans-serif; fill: #64748b" transform="translate(97.65216 247.45299)">10 GEO accessions</text>
    <text style="font-size: 8px; font-family: 'DejaVu Sans', 'Bitstream Vera Sans', 'Computer Modern Sans Serif', 'Lucida Grande', 'Verdana', 'Geneva', 'Lucid', 'Arial', 'Helvetica', 'Avant Garde', sans-serif; fill: #64748b" transform="translate(97.65216 256.41124)">→ configs/datasets.yaml</text>
   </g>
   <g id="text_10">
    <text style="font-weight: 700; font-size: 10px; font-family: 'DejaVu Sans', 'Bitstream Vera Sans', 'Computer Modern Sans Serif', 'Lucida Grande', 'Verdana', 'Geneva', 'Lucid', 'Arial', 'Helvetica', 'Avant Garde', sans-serif; text-anchor: start; fill: #0f172a" x="97.65216" y="336.141637" transform="rotate(-0 97.65216 336.141637)">Preprocessing</text>
   </g>
   <g id="text_11">
    <text style="font-size: 8px; font-family: 'DejaVu Sans', 'Bitstream Vera Sans', 'Computer Modern Sans Serif', 'Lucida Grande', 'Verdana', 'Geneva', 'Lucid', 'Arial', 'Helvetica', 'Avant Garde', sans-serif; fill: #64748b" transform="translate(97.65216 353.82867)">QC · log1p · 2,000 HVGs · 50-PC PCA</text>
    <text style="font-size: 8px; font-family: 'DejaVu Sans', 'Bitstream Vera Sans', 'Computer Modern Sans Serif', 'Lucida Grande', 'Verdana', 'Geneva', 'Lucid', 'Arial', 'Helvetica', 'Avant Garde', sans-serif; fill: #64748b" transform="translate(97.65216 362.78692)">→ data/processed/*.h5ad</text>
   </g>
   <g id="text_12">
    <text style="font-weight: 700; font-size: 10px; font-family: 'DejaVu Sans', 'Bitstream Vera Sans', 'Computer Modern Sans Serif', 'Lucida Grande', 'Verdana', 'Geneva', 'Lucid', 'Arial', 'Helvetica', 'Avant Garde', sans-serif; text-anchor: start; fill: #0f172a" x="97.65216" y="442.517317" transform="rotate(-0 97.65216 442.517317)">Validation &amp; Tier Assignment</text>
   </g>
   <g id="text_13">
    <text style="font-size: 8px; font-family: 'DejaVu Sans', 'Bitstream Vera Sans', 'Computer Modern Sans Serif', 'Lucida Grande', 'Verdana', 'Geneva', 'Lucid', 'Arial', 'Helvetica', 'Avant Garde', sans-serif; fill: #64748b" transform="translate(97.65216 460.20435)">source ⨯ CNV ⨯ signature ⨯ kNN</text>
    <text style="font-size: 8px; font-family: 'DejaVu Sans', 'Bitstream Vera Sans', 'Computer Modern Sans Serif', 'Lucida Grande', 'Verdana', 'Geneva', 'Lucid', 'Arial', 'Helvetica', 'Avant Garde', sans-serif; fill: #64748b" transform="translate(97.65216 469.1626)">→ tier_assignments.parquet</text>
   </g>
   <g id="text_14">
    <text style="font-weight: 700; font-size: 8.6px; font-family: 'DejaVu Sans', 'Bitstream Vera Sans', 'Computer Modern Sans Serif', 'Lucida Grande', 'Verdana', 'Geneva', 'Lucid', 'Arial', 'Helvetica', 'Avant Garde', sans-serif; text-anchor: start; fill: #0f172a" x="459.4608" y="117.894176" transform="rotate(-0 459.4608 117.894176)">Track A — Controlled Real Spike-ins</text>
   </g>
   <g id="text_15">
    <text style="font-size: 7.7px; font-family: 'DejaVu Sans', 'Bitstream Vera Sans', 'Computer Modern Sans Serif', 'Lucida Grande', 'Verdana', 'Geneva', 'Lucid', 'Arial', 'Helvetica', 'Avant Garde', sans-serif; text-anchor: start; fill: #64748b" x="459.4608" y="131.984717" transform="rotate(-0 459.4608 131.984717)">8 datasets × T1–T4 × 5 reps  →  160 units · primary</text>
   </g>
   <g id="text_16">
    <text style="font-weight: 700; font-size: 8.6px; font-family: 'DejaVu Sans', 'Bitstream Vera Sans', 'Computer Modern Sans Serif', 'Lucida Grande', 'Verdana', 'Geneva', 'Lucid', 'Arial', 'Helvetica', 'Avant Garde', sans-serif; text-anchor: start; fill: #0f172a" x="459.4608" y="160.739936" transform="rotate(-0 459.4608 160.739936)">Track B — Synthetic Splatter Stress-Test</text>
   </g>
   <g id="text_17">
    <text style="font-size: 7.7px; font-family: 'DejaVu Sans', 'Bitstream Vera Sans', 'Computer Modern Sans Serif', 'Lucida Grande', 'Verdana', 'Geneva', 'Lucid', 'Arial', 'Helvetica', 'Avant Garde', sans-serif; text-anchor: start; fill: #64748b" x="459.4608" y="174.830477" transform="rotate(-0 459.4608 174.830477)">8 datasets × T1–T4 × 3–4 reps  →  120 units · secondary</text>
   </g>
   <g id="text_18">
    <text style="font-weight: 700; font-size: 8.6px; font-family: 'DejaVu Sans', 'Bitstream Vera Sans', 'Computer Modern Sans Serif', 'Lucida Grande', 'Verdana', 'Geneva', 'Lucid', 'Arial', 'Helvetica', 'Avant Garde', sans-serif; text-anchor: start; fill: #0f172a" x="459.4608" y="203.585696" transform="rotate(-0 459.4608 203.585696)">Track C — Null Background-Only Controls</text>
   </g>
   <g id="text_19">
    <text style="font-size: 7.7px; font-family: 'DejaVu Sans', 'Bitstream Vera Sans', 'Computer Modern Sans Serif', 'Lucida Grande', 'Verdana', 'Geneva', 'Lucid', 'Arial', 'Helvetica', 'Avant Garde', sans-serif; text-anchor: start; fill: #64748b" x="459.4608" y="217.676237" transform="rotate(-0 459.4608 217.676237)">8 datasets × 4 size tiers × 5 reps  →  160 units · diagnostic</text>
   </g>
   <g id="text_20">
    <text style="font-weight: 700; font-size: 8.6px; font-family: 'DejaVu Sans', 'Bitstream Vera Sans', 'Computer Modern Sans Serif', 'Lucida Grande', 'Verdana', 'Geneva', 'Lucid', 'Arial', 'Helvetica', 'Avant Garde', sans-serif; text-anchor: start; fill: #0f172a" x="459.4608" y="246.431456" transform="rotate(-0 459.4608 246.431456)">Track D — Natural Blood / CTC Prevalence</text>
   </g>
   <g id="text_21">
    <text style="font-size: 7.7px; font-family: 'DejaVu Sans', 'Bitstream Vera Sans', 'Computer Modern Sans Serif', 'Lucida Grande', 'Verdana', 'Geneva', 'Lucid', 'Arial', 'Helvetica', 'Avant Garde', sans-serif; text-anchor: start; fill: #64748b" x="459.4608" y="260.521997" transform="rotate(-0 459.4608 260.521997)">mm_ledergor + breast_ctc_szczerba  →  30 units · primary</text>
   </g>
   <g id="text_22">
    <text style="font-weight: 700; font-size: 8.6px; font-family: 'DejaVu Sans', 'Bitstream Vera Sans', 'Computer Modern Sans Serif', 'Lucida Grande', 'Verdana', 'Geneva', 'Lucid', 'Arial', 'Helvetica', 'Avant Garde', sans-serif; text-anchor: start; fill: #0f172a" x="459.4608" y="289.277216" transform="rotate(-0 459.4608 289.277216)">Track E — Noisy-Label Robustness</text>
   </g>
   <g id="text_23">
    <text style="font-size: 7.7px; font-family: 'DejaVu Sans', 'Bitstream Vera Sans', 'Computer Modern Sans Serif', 'Lucida Grande', 'Verdana', 'Geneva', 'Lucid', 'Arial', 'Helvetica', 'Avant Garde', sans-serif; text-anchor: start; fill: #64748b" x="459.4608" y="303.367757" transform="rotate(-0 459.4608 303.367757)">4 noise conditions × 160 units  →  640 units · primary (sup. only)</text>
   </g>
   <g id="text_24">
    <text style="font-weight: 700; font-size: 9.8px; font-family: 'DejaVu Sans', 'Bitstream Vera Sans', 'Computer Modern Sans Serif', 'Lucida Grande', 'Verdana', 'Geneva', 'Lucid', 'Arial', 'Helvetica', 'Avant Garde', sans-serif; text-anchor: start; fill: #0f172a" x="454.70016" y="365.538469" transform="rotate(-0 454.70016 365.538469)">Method Wrappers</text>
   </g>
   <g id="text_25">
    <text style="font-size: 7.7px; font-family: 'DejaVu Sans', 'Bitstream Vera Sans', 'Computer Modern Sans Serif', 'Lucida Grande', 'Verdana', 'Geneva', 'Lucid', 'Arial', 'Helvetica', 'Avant Garde', sans-serif; fill: #64748b" transform="translate(454.70016 383.149517)">10 included methods · standardised run() contract</text>
    <text style="font-size: 7.7px; font-family: 'DejaVu Sans', 'Bitstream Vera Sans', 'Computer Modern Sans Serif', 'Lucida Grande', 'Verdana', 'Geneva', 'Lucid', 'Arial', 'Helvetica', 'Avant Garde', sans-serif; fill: #64748b" transform="translate(454.70016 391.771832)">Ranked: FiRE · DeepScena · RareQ · cellsius · scCAD · scMalignantFinder</text>
    <text style="font-size: 7.7px; font-family: 'DejaVu Sans', 'Bitstream Vera Sans', 'Computer Modern Sans Serif', 'Lucida Grande', 'Verdana', 'Geneva', 'Lucid', 'Arial', 'Helvetica', 'Avant Garde', sans-serif; fill: #64748b" transform="translate(454.70016 400.394148)">Other: CaSee · hvg_logreg · expr_threshold · random_baseline</text>
   </g>
   <g id="text_26">
    <text style="font-weight: 700; font-size: 9.8px; font-family: 'DejaVu Sans', 'Bitstream Vera Sans', 'Computer Modern Sans Serif', 'Lucida Grande', 'Verdana', 'Geneva', 'Lucid', 'Arial', 'Helvetica', 'Avant Garde', sans-serif; text-anchor: start; fill: #0f172a" x="454.70016" y="450.491269" transform="rotate(-0 454.70016 450.491269)">Prediction Execution</text>
   </g>
   <g id="text_27">
    <text style="font-size: 7.7px; font-family: 'DejaVu Sans', 'Bitstream Vera Sans', 'Computer Modern Sans Serif', 'Lucida Grande', 'Verdana', 'Geneva', 'Lucid', 'Arial', 'Helvetica', 'Avant Garde', sans-serif; fill: #64748b" transform="translate(454.70016 468.102317)">11,100 method-unit runs · resource-aware batching</text>
    <text style="font-size: 7.7px; font-family: 'DejaVu Sans', 'Bitstream Vera Sans', 'Computer Modern Sans Serif', 'Lucida Grande', 'Verdana', 'Geneva', 'Lucid', 'Arial', 'Helvetica', 'Avant Garde', sans-serif; fill: #64748b" transform="translate(454.70016 476.724632)">→ results/&lt;method&gt;/&lt;unit&gt;/predictions.csv + runmeta.json</text>
   </g>
   <g id="text_28">
    <text style="font-weight: 700; font-size: 10px; font-family: 'DejaVu Sans', 'Bitstream Vera Sans', 'Computer Modern Sans Serif', 'Lucida Grande', 'Verdana', 'Geneva', 'Lucid', 'Arial', 'Helvetica', 'Avant Garde', sans-serif; text-anchor: start; fill: #0f172a" x="912.91176" y="207.973717" transform="rotate(-0 912.91176 207.973717)">Evaluation &amp; Statistics</text>
   </g>
   <g id="text_29">
    <text style="font-size: 8px; font-family: 'DejaVu Sans', 'Bitstream Vera Sans', 'Computer Modern Sans Serif', 'Lucida Grande', 'Verdana', 'Geneva', 'Lucid', 'Arial', 'Helvetica', 'Avant Garde', sans-serif; fill: #64748b" transform="translate(912.91176 225.66075)">AP · nAP · AUROC · F1@k · MCC@k · runtime</text>
    <text style="font-size: 8px; font-family: 'DejaVu Sans', 'Bitstream Vera Sans', 'Computer Modern Sans Serif', 'Lucida Grande', 'Verdana', 'Geneva', 'Lucid', 'Arial', 'Helvetica', 'Avant Garde', sans-serif; fill: #64748b" transform="translate(912.91176 234.619)">Friedman · Iman-Davenport · Wilcoxon BH/Holm</text>
    <text style="font-size: 8px; font-family: 'DejaVu Sans', 'Bitstream Vera Sans', 'Computer Modern Sans Serif', 'Lucida Grande', 'Verdana', 'Geneva', 'Lucid', 'Arial', 'Helvetica', 'Avant Garde', sans-serif; fill: #64748b" transform="translate(912.91176 243.57725)">2,000-resample bootstrap rank CIs</text>
   </g>
   <g id="text_30">
    <text style="font-weight: 700; font-size: 10px; font-family: 'DejaVu Sans', 'Bitstream Vera Sans', 'Computer Modern Sans Serif', 'Lucida Grande', 'Verdana', 'Geneva', 'Lucid', 'Arial', 'Helvetica', 'Avant Garde', sans-serif; text-anchor: start; fill: #0f172a" x="912.91176" y="326.168917" transform="rotate(-0 912.91176 326.168917)">Figure Generation</text>
   </g>
   <g id="text_31">
    <text style="font-size: 8px; font-family: 'DejaVu Sans', 'Bitstream Vera Sans', 'Computer Modern Sans Serif', 'Lucida Grande', 'Verdana', 'Geneva', 'Lucid', 'Arial', 'Helvetica', 'Avant Garde', sans-serif; fill: #64748b" transform="translate(912.91176 343.85595)">Leaderboard · sensitivity · null · runtime · ranks</text>
    <text style="font-size: 8px; font-family: 'DejaVu Sans', 'Bitstream Vera Sans', 'Computer Modern Sans Serif', 'Lucida Grande', 'Verdana', 'Geneva', 'Lucid', 'Arial', 'Helvetica', 'Avant Garde', sans-serif; fill: #64748b" transform="translate(912.91176 352.8142)">→ data/results/figures/*.pdf  +  manuscript</text>
   </g>
   <g id="text_32">
    <g id="patch_38">
     <path d="M 565.4205 526.91718 
L 639.1395 526.91718 
Q 641.5395 526.91718 641.5395 524.51718 
L 641.5395 515.22618 
Q 641.5395 512.82618 639.1395 512.82618 
L 565.4205 512.82618 
Q 563.0205 512.82618 563.0205 515.22618 
L 563.0205 524.51718 
Q 563.0205 526.91718 565.4205 526.91718 
z
" style="fill: #ffffff; stroke: #64748b; stroke-width: 0.6; stroke-linejoin: miter"/>
    </g>
    <text style="font-weight: 700; font-size: 9.6px; font-family: 'DejaVu Sans', 'Bitstream Vera Sans', 'Computer Modern Sans Serif', 'Lucida Grande', 'Verdana', 'Geneva', 'Lucid', 'Arial', 'Helvetica', 'Avant Garde', sans-serif; text-anchor: middle; fill: #64748b" x="602.28" y="522.52068" transform="rotate(-0 602.28 522.52068)">DATA STORES</text>
   </g>
   <g id="patch_39">
    <path d="M 132.1668 560.13192 
C 145.58125 560.13192 158.448085 559.703821 167.933534 558.941907 
C 177.418982 558.179992 182.7486 557.14647 182.7486 556.06896 
C 182.7486 554.99145 177.418982 553.957928 167.933534 553.196013 
C 158.448085 552.434099 145.58125 552.006 132.1668 552.006 
C 118.75235 552.006 105.885515 552.434099 96.400066 553.196013 
C 86.914618 553.957928 81.585 554.99145 81.585 556.06896 
C 81.585 557.14647 86.914618 558.179992 96.400066 558.941907 
C 105.885515 559.703821 118.75235 560.13192 132.1668 560.13192 
z
" clip-path="url(#p736e3a3994)" style="fill: #fef9c3; stroke: #a16207; stroke-linejoin: miter"/>
   </g>
   <g id="patch_40">
    <path d="M 132.1668 585.2484 
C 145.58125 585.2484 158.448085 584.820301 167.933534 584.058387 
C 177.418982 583.296472 182.7486 582.26295 182.7486 581.18544 
C 182.7486 580.10793 177.418982 579.074408 167.933534 578.312493 
C 158.448085 577.550579 145.58125 577.12248 132.1668 577.12248 
C 118.75235 577.12248 105.885515 577.550579 96.400066 578.312493 
C 86.914618 579.074408 81.585 580.10793 81.585 581.18544 
C 81.585 582.26295 86.914618 583.296472 96.400066 584.058387 
C 105.885515 584.820301 118.75235 585.2484 132.1668 585.2484 
z
" clip-path="url(#p736e3a3994)" style="fill: #fef9c3; stroke: #a16207; stroke-linejoin: miter"/>
   </g>
   <g id="text_33">
    <text style="font-size: 7.6px; font-family: 'DejaVu Sans Mono', 'Bitstream Vera Sans Mono', 'Computer Modern Typewriter', 'Andale Mono', 'Nimbus Mono L', 'Courier New', 'Courier', 'Fixed', 'Terminal', monospace; text-anchor: middle; fill: #0f172a" x="132.1668" y="602.883107" transform="rotate(-0 132.1668 602.883107)">configs/datasets.yaml</text>
   </g>
   <g id="patch_41">
    <path d="M 298.7892 560.13192 
C 312.20365 560.13192 325.070485 559.703821 334.555934 558.941907 
C 344.041382 558.179992 349.371 557.14647 349.371 556.06896 
C 349.371 554.99145 344.041382 553.957928 334.555934 553.196013 
C 325.070485 552.434099 312.20365 552.006 298.7892 552.006 
C 285.37475 552.006 272.507915 552.434099 263.022466 553.196013 
C 253.537018 553.957928 248.2074 554.99145 248.2074 556.06896 
C 248.2074 557.14647 253.537018 558.179992 263.022466 558.941907 
C 272.507915 559.703821 285.37475 560.13192 298.7892 560.13192 
z
" clip-path="url(#p736e3a3994)" style="fill: #fef9c3; stroke: #a16207; stroke-linejoin: miter"/>
   </g>
   <g id="patch_42">
    <path d="M 298.7892 585.2484 
C 312.20365 585.2484 325.070485 584.820301 334.555934 584.058387 
C 344.041382 583.296472 349.371 582.26295 349.371 581.18544 
C 349.371 580.10793 344.041382 579.074408 334.555934 578.312493 
C 325.070485 577.550579 312.20365 577.12248 298.7892 577.12248 
C 285.37475 577.12248 272.507915 577.550579 263.022466 578.312493 
C 253.537018 579.074408 248.2074 580.10793 248.2074 581.18544 
C 248.2074 582.26295 253.537018 583.296472 263.022466 584.058387 
C 272.507915 584.820301 285.37475 585.2484 298.7892 585.2484 
z
" clip-path="url(#p736e3a3994)" style="fill: #fef9c3; stroke: #a16207; stroke-linejoin: miter"/>
   </g>
   <g id="text_34">
    <text style="font-size: 7.6px; font-family: 'DejaVu Sans Mono', 'Bitstream Vera Sans Mono', 'Computer Modern Typewriter', 'Andale Mono', 'Nimbus Mono L', 'Courier New', 'Courier', 'Fixed', 'Terminal', monospace; text-anchor: middle; fill: #0f172a" x="298.7892" y="602.883107" transform="rotate(-0 298.7892 602.883107)">data/processed/*.h5ad</text>
   </g>
   <g id="patch_43">
    <path d="M 471.3624 560.13192 
C 484.77685 560.13192 497.643685 559.703821 507.129134 558.941907 
C 516.614582 558.179992 521.9442 557.14647 521.9442 556.06896 
C 521.9442 554.99145 516.614582 553.957928 507.129134 553.196013 
C 497.643685 552.434099 484.77685 552.006 471.3624 552.006 
C 457.94795 552.006 445.081115 552.434099 435.595666 553.196013 
C 426.110218 553.957928 420.7806 554.99145 420.7806 556.06896 
C 420.7806 557.14647 426.110218 558.179992 435.595666 558.941907 
C 445.081115 559.703821 457.94795 560.13192 471.3624 560.13192 
z
" clip-path="url(#p736e3a3994)" style="fill: #fef9c3; stroke: #a16207; stroke-linejoin: miter"/>
   </g>
   <g id="patch_44">
    <path d="M 471.3624 585.2484 
C 484.77685 585.2484 497.643685 584.820301 507.129134 584.058387 
C 516.614582 583.296472 521.9442 582.26295 521.9442 581.18544 
C 521.9442 580.10793 516.614582 579.074408 507.129134 578.312493 
C 497.643685 577.550579 484.77685 577.12248 471.3624 577.12248 
C 457.94795 577.12248 445.081115 577.550579 435.595666 578.312493 
C 426.110218 579.074408 420.7806 580.10793 420.7806 581.18544 
C 420.7806 582.26295 426.110218 583.296472 435.595666 584.058387 
C 445.081115 584.820301 457.94795 585.2484 471.3624 585.2484 
z
" clip-path="url(#p736e3a3994)" style="fill: #fef9c3; stroke: #a16207; stroke-linejoin: miter"/>
   </g>
   <g id="text_35">
    <text style="font-size: 7.6px; font-family: 'DejaVu Sans Mono', 'Bitstream Vera Sans Mono', 'Computer Modern Typewriter', 'Andale Mono', 'Nimbus Mono L', 'Courier New', 'Courier', 'Fixed', 'Terminal', monospace; text-anchor: middle; fill: #0f172a" x="471.3624" y="602.842732" transform="rotate(-0 471.3624 602.842732)">tier_assignments.parquet</text>
   </g>
   <g id="patch_45">
    <path d="M 643.9356 560.13192 
C 657.35005 560.13192 670.216885 559.703821 679.702334 558.941907 
C 689.187782 558.179992 694.5174 557.14647 694.5174 556.06896 
C 694.5174 554.99145 689.187782 553.957928 679.702334 553.196013 
C 670.216885 552.434099 657.35005 552.006 643.9356 552.006 
C 630.52115 552.006 617.654315 552.434099 608.168866 553.196013 
C 598.683418 553.957928 593.3538 554.99145 593.3538 556.06896 
C 593.3538 557.14647 598.683418 558.179992 608.168866 558.941907 
C 617.654315 559.703821 630.52115 560.13192 643.9356 560.13192 
z
" clip-path="url(#p736e3a3994)" style="fill: #fef9c3; stroke: #a16207; stroke-linejoin: miter"/>
   </g>
   <g id="patch_46">
    <path d="M 643.9356 585.2484 
C 657.35005 585.2484 670.216885 584.820301 679.702334 584.058387 
C 689.187782 583.296472 694.5174 582.26295 694.5174 581.18544 
C 694.5174 580.10793 689.187782 579.074408 679.702334 578.312493 
C 670.216885 577.550579 657.35005 577.12248 643.9356 577.12248 
C 630.52115 577.12248 617.654315 577.550579 608.168866 578.312493 
C 598.683418 579.074408 593.3538 580.10793 593.3538 581.18544 
C 593.3538 582.26295 598.683418 583.296472 608.168866 584.058387 
C 617.654315 584.820301 630.52115 585.2484 643.9356 585.2484 
z
" clip-path="url(#p736e3a3994)" style="fill: #fef9c3; stroke: #a16207; stroke-linejoin: miter"/>
   </g>
   <g id="text_36">
    <text style="font-size: 7.6px; font-family: 'DejaVu Sans Mono', 'Bitstream Vera Sans Mono', 'Computer Modern Typewriter', 'Andale Mono', 'Nimbus Mono L', 'Courier New', 'Courier', 'Fixed', 'Terminal', monospace; text-anchor: middle; fill: #0f172a" x="643.9356" y="602.883107" transform="rotate(-0 643.9356 602.883107)">data/tracks/{a..e}/</text>
   </g>
   <g id="patch_47">
    <path d="M 816.5088 560.13192 
C 829.92325 560.13192 842.790085 559.703821 852.275534 558.941907 
C 861.760982 558.179992 867.0906 557.14647 867.0906 556.06896 
C 867.0906 554.99145 861.760982 553.957928 852.275534 553.196013 
C 842.790085 552.434099 829.92325 552.006 816.5088 552.006 
C 803.09435 552.006 790.227515 552.434099 780.742066 553.196013 
C 771.256618 553.957928 765.927 554.99145 765.927 556.06896 
C 765.927 557.14647 771.256618 558.179992 780.742066 558.941907 
C 790.227515 559.703821 803.09435 560.13192 816.5088 560.13192 
z
" clip-path="url(#p736e3a3994)" style="fill: #fef9c3; stroke: #a16207; stroke-linejoin: miter"/>
   </g>
   <g id="patch_48">
    <path d="M 816.5088 585.2484 
C 829.92325 585.2484 842.790085 584.820301 852.275534 584.058387 
C 861.760982 583.296472 867.0906 582.26295 867.0906 581.18544 
C 867.0906 580.10793 861.760982 579.074408 852.275534 578.312493 
C 842.790085 577.550579 829.92325 577.12248 816.5088 577.12248 
C 803.09435 577.12248 790.227515 577.550579 780.742066 578.312493 
C 771.256618 579.074408 765.927 580.10793 765.927 581.18544 
C 765.927 582.26295 771.256618 583.296472 780.742066 584.058387 
C 790.227515 584.820301 803.09435 585.2484 816.5088 585.2484 
z
" clip-path="url(#p736e3a3994)" style="fill: #fef9c3; stroke: #a16207; stroke-linejoin: miter"/>
   </g>
   <g id="text_37">
    <text style="font-size: 7.6px; font-family: 'DejaVu Sans Mono', 'Bitstream Vera Sans Mono', 'Computer Modern Typewriter', 'Andale Mono', 'Nimbus Mono L', 'Courier New', 'Courier', 'Fixed', 'Terminal', monospace; fill: #0f172a" transform="translate(782.193019 602.883107)">predictions.csv</text>
    <text style="font-size: 7.6px; font-family: 'DejaVu Sans Mono', 'Bitstream Vera Sans Mono', 'Computer Modern Typewriter', 'Andale Mono', 'Nimbus Mono L', 'Courier New', 'Courier', 'Fixed', 'Terminal', monospace; fill: #0f172a" transform="translate(784.480737 611.441895)">+ runmeta.json</text>
   </g>
   <g id="patch_49">
    <path d="M 989.082 560.13192 
C 1002.49645 560.13192 1015.363285 559.703821 1024.848734 558.941907 
C 1034.334182 558.179992 1039.6638 557.14647 1039.6638 556.06896 
C 1039.6638 554.99145 1034.334182 553.957928 1024.848734 553.196013 
C 1015.363285 552.434099 1002.49645 552.006 989.082 552.006 
C 975.66755 552.006 962.800715 552.434099 953.315266 553.196013 
C 943.829818 553.957928 938.5002 554.99145 938.5002 556.06896 
C 938.5002 557.14647 943.829818 558.179992 953.315266 558.941907 
C 962.800715 559.703821 975.66755 560.13192 989.082 560.13192 
z
" clip-path="url(#p736e3a3994)" style="fill: #fef9c3; stroke: #a16207; stroke-linejoin: miter"/>
   </g>
   <g id="patch_50">
    <path d="M 989.082 585.2484 
C 1002.49645 585.2484 1015.363285 584.820301 1024.848734 584.058387 
C 1034.334182 583.296472 1039.6638 582.26295 1039.6638 581.18544 
C 1039.6638 580.10793 1034.334182 579.074408 1024.848734 578.312493 
C 1015.363285 577.550579 1002.49645 577.12248 989.082 577.12248 
C 975.66755 577.12248 962.800715 577.550579 953.315266 578.312493 
C 943.829818 579.074408 938.5002 580.10793 938.5002 581.18544 
C 938.5002 582.26295 943.829818 583.296472 953.315266 584.058387 
C 962.800715 584.820301 975.66755 585.2484 989.082 585.2484 
z
" clip-path="url(#p736e3a3994)" style="fill: #fef9c3; stroke: #a16207; stroke-linejoin: miter"/>
   </g>
   <g id="text_38">
    <text style="font-size: 7.6px; font-family: 'DejaVu Sans Mono', 'Bitstream Vera Sans Mono', 'Computer Modern Typewriter', 'Andale Mono', 'Nimbus Mono L', 'Courier New', 'Courier', 'Fixed', 'Terminal', monospace; fill: #0f172a" transform="translate(954.766219 602.883107)">leaderboard.csv</text>
    <text style="font-size: 7.6px; font-family: 'DejaVu Sans Mono', 'Bitstream Vera Sans Mono', 'Computer Modern Typewriter', 'Andale Mono', 'Nimbus Mono L', 'Courier New', 'Courier', 'Fixed', 'Terminal', monospace; fill: #0f172a" transform="translate(959.341656 611.441895)">phase11/*.csv</text>
   </g>
   <g id="patch_51">
    <path d="M 1143.8028 560.13192 
C 1157.21725 560.13192 1170.084085 559.703821 1179.569534 558.941907 
C 1189.054982 558.179992 1194.3846 557.14647 1194.3846 556.06896 
C 1194.3846 554.99145 1189.054982 553.957928 1179.569534 553.196013 
C 1170.084085 552.434099 1157.21725 552.006 1143.8028 552.006 
C 1130.38835 552.006 1117.521515 552.434099 1108.036066 553.196013 
C 1098.550618 553.957928 1093.221 554.99145 1093.221 556.06896 
C 1093.221 557.14647 1098.550618 558.179992 1108.036066 558.941907 
C 1117.521515 559.703821 1130.38835 560.13192 1143.8028 560.13192 
z
" clip-path="url(#p736e3a3994)" style="fill: #fef9c3; stroke: #a16207; stroke-linejoin: miter"/>
   </g>
   <g id="patch_52">
    <path d="M 1143.8028 585.2484 
C 1157.21725 585.2484 1170.084085 584.820301 1179.569534 584.058387 
C 1189.054982 583.296472 1194.3846 582.26295 1194.3846 581.18544 
C 1194.3846 580.10793 1189.054982 579.074408 1179.569534 578.312493 
C 1170.084085 577.550579 1157.21725 577.12248 1143.8028 577.12248 
C 1130.38835 577.12248 1117.521515 577.550579 1108.036066 578.312493 
C 1098.550618 579.074408 1093.221 580.10793 1093.221 581.18544 
C 1093.221 582.26295 1098.550618 583.296472 1108.036066 584.058387 
C 1117.521515 584.820301 1130.38835 585.2484 1143.8028 585.2484 
z
" clip-path="url(#p736e3a3994)" style="fill: #fef9c3; stroke: #a16207; stroke-linejoin: miter"/>
   </g>
   <g id="text_39">
    <text style="font-size: 7.6px; font-family: 'DejaVu Sans Mono', 'Bitstream Vera Sans Mono', 'Computer Modern Typewriter', 'Andale Mono', 'Nimbus Mono L', 'Courier New', 'Courier', 'Fixed', 'Terminal', monospace; text-anchor: middle; fill: #0f172a" x="1143.8028" y="602.842732" transform="rotate(-0 1143.8028 602.842732)">figures/*.pdf</text>
   </g>
   <g id="patch_53">
    <path d="M 71.46864 131.30496 
C 75.887518 131.30496 80.126005 130.215253 83.250623 128.275835 
C 86.375241 126.336417 88.13088 123.705632 88.13088 120.96288 
C 88.13088 118.220128 86.375241 115.589343 83.250623 113.649925 
C 80.126005 111.710507 75.887518 110.6208 71.46864 110.6208 
C 67.049762 110.6208 62.811275 111.710507 59.686657 113.649925 
C 56.562039 115.589343 54.8064 118.220128 54.8064 120.96288 
C 54.8064 123.705632 56.562039 126.336417 59.686657 128.275835 
C 62.811275 130.215253 67.049762 131.30496 71.46864 131.30496 
z
" clip-path="url(#p736e3a3994)" style="fill: #ffffff; stroke: #0369a1; stroke-width: 1.6; stroke-linejoin: miter"/>
   </g>
   <g id="patch_54">
    <path d="M 71.46864 237.68064 
C 75.887518 237.68064 80.126005 236.590933 83.250623 234.651515 
C 86.375241 232.712097 88.13088 230.081312 88.13088 227.33856 
C 88.13088 224.595808 86.375241 221.965023 83.250623 220.025605 
C 80.126005 218.086187 75.887518 216.99648 71.46864 216.99648 
C 67.049762 216.99648 62.811275 218.086187 59.686657 220.025605 
C 56.562039 221.965023 54.8064 224.595808 54.8064 227.33856 
C 54.8064 230.081312 56.562039 232.712097 59.686657 234.651515 
C 62.811275 236.590933 67.049762 237.68064 71.46864 237.68064 
z
" clip-path="url(#p736e3a3994)" style="fill: #ffffff; stroke: #0369a1; stroke-width: 1.6; stroke-linejoin: miter"/>
   </g>
   <g id="patch_55">
    <path d="M 71.46864 344.05632 
C 75.887518 344.05632 80.126005 342.966613 83.250623 341.027195 
C 86.375241 339.087777 88.13088 336.456992 88.13088 333.71424 
C 88.13088 330.971488 86.375241 328.340703 83.250623 326.401285 
C 80.126005 324.461867 75.887518 323.37216 71.46864 323.37216 
C 67.049762 323.37216 62.811275 324.461867 59.686657 326.401285 
C 56.562039 328.340703 54.8064 330.971488 54.8064 333.71424 
C 54.8064 336.456992 56.562039 339.087777 59.686657 341.027195 
C 62.811275 342.966613 67.049762 344.05632 71.46864 344.05632 
z
" clip-path="url(#p736e3a3994)" style="fill: #ffffff; stroke: #0369a1; stroke-width: 1.6; stroke-linejoin: miter"/>
   </g>
   <g id="patch_56">
    <path d="M 71.46864 450.432 
C 75.887518 450.432 80.126005 449.342293 83.250623 447.402875 
C 86.375241 445.463457 88.13088 442.832672 88.13088 440.08992 
C 88.13088 437.347168 86.375241 434.716383 83.250623 432.776965 
C 80.126005 430.837547 75.887518 429.74784 71.46864 429.74784 
C 67.049762 429.74784 62.811275 430.837547 59.686657 432.776965 
C 56.562039 434.716383 54.8064 437.347168 54.8064 440.08992 
C 54.8064 442.832672 56.562039 445.463457 59.686657 447.402875 
C 62.811275 449.342293 67.049762 450.432 71.46864 450.432 
z
" clip-path="url(#p736e3a3994)" style="fill: #ffffff; stroke: #0369a1; stroke-width: 1.6; stroke-linejoin: miter"/>
   </g>
   <g id="patch_57">
    <path d="M 428.51664 130.56624 
C 432.935518 130.56624 437.174005 129.476533 440.298623 127.537115 
C 443.423241 125.597697 445.17888 122.966912 445.17888 120.22416 
C 445.17888 117.481408 443.423241 114.850623 440.298623 112.911205 
C 437.174005 110.971787 432.935518 109.88208 428.51664 109.88208 
C 424.097762 109.88208 419.859275 110.971787 416.734657 112.911205 
C 413.610039 114.850623 411.8544 117.481408 411.8544 120.22416 
C 411.8544 122.966912 413.610039 125.597697 416.734657 127.537115 
C 419.859275 129.476533 424.097762 130.56624 428.51664 130.56624 
z
" clip-path="url(#p736e3a3994)" style="fill: #ffffff; stroke: #1d4ed8; stroke-width: 1.5; stroke-linejoin: miter"/>
   </g>
   <g id="patch_58">
    <path d="M 428.51664 173.412 
C 432.935518 173.412 437.174005 172.322293 440.298623 170.382875 
C 443.423241 168.443457 445.17888 165.812672 445.17888 163.06992 
C 445.17888 160.327168 443.423241 157.696383 440.298623 155.756965 
C 437.174005 153.817547 432.935518 152.72784 428.51664 152.72784 
C 424.097762 152.72784 419.859275 153.817547 416.734657 155.756965 
C 413.610039 157.696383 411.8544 160.327168 411.8544 163.06992 
C 411.8544 165.812672 413.610039 168.443457 416.734657 170.382875 
C 419.859275 172.322293 424.097762 173.412 428.51664 173.412 
z
" clip-path="url(#p736e3a3994)" style="fill: #ffffff; stroke: #15803d; stroke-width: 1.5; stroke-linejoin: miter"/>
   </g>
   <g id="patch_59">
    <path d="M 428.51664 216.25776 
C 432.935518 216.25776 437.174005 215.168053 440.298623 213.228635 
C 443.423241 211.289217 445.17888 208.658432 445.17888 205.91568 
C 445.17888 203.172928 443.423241 200.542143 440.298623 198.602725 
C 437.174005 196.663307 432.935518 195.5736 428.51664 195.5736 
C 424.097762 195.5736 419.859275 196.663307 416.734657 198.602725 
C 413.610039 200.542143 411.8544 203.172928 411.8544 205.91568 
C 411.8544 208.658432 413.610039 211.289217 416.734657 213.228635 
C 419.859275 215.168053 424.097762 216.25776 428.51664 216.25776 
z
" clip-path="url(#p736e3a3994)" style="fill: #ffffff; stroke: #c2410c; stroke-width: 1.5; stroke-linejoin: miter"/>
   </g>
   <g id="patch_60">
    <path d="M 428.51664 259.10352 
C 432.935518 259.10352 437.174005 258.013813 440.298623 256.074395 
C 443.423241 254.134977 445.17888 251.504192 445.17888 248.76144 
C 445.17888 246.018688 443.423241 243.387903 440.298623 241.448485 
C 437.174005 239.509067 432.935518 238.41936 428.51664 238.41936 
C 424.097762 238.41936 419.859275 239.509067 416.734657 241.448485 
C 413.610039 243.387903 411.8544 246.018688 411.8544 248.76144 
C 411.8544 251.504192 413.610039 254.134977 416.734657 256.074395 
C 419.859275 258.013813 424.097762 259.10352 428.51664 259.10352 
z
" clip-path="url(#p736e3a3994)" style="fill: #ffffff; stroke: #1d4ed8; stroke-width: 1.5; stroke-linejoin: miter"/>
   </g>
   <g id="patch_61">
    <path d="M 428.51664 301.94928 
C 432.935518 301.94928 437.174005 300.859573 440.298623 298.920155 
C 443.423241 296.980737 445.17888 294.349952 445.17888 291.6072 
C 445.17888 288.864448 443.423241 286.233663 440.298623 284.294245 
C 437.174005 282.354827 432.935518 281.26512 428.51664 281.26512 
C 424.097762 281.26512 419.859275 282.354827 416.734657 284.294245 
C 413.610039 286.233663 411.8544 288.864448 411.8544 291.6072 
C 411.8544 294.349952 413.610039 296.980737 416.734657 298.920155 
C 419.859275 300.859573 424.097762 301.94928 428.51664 301.94928 
z
" clip-path="url(#p736e3a3994)" style="fill: #ffffff; stroke: #1d4ed8; stroke-width: 1.5; stroke-linejoin: miter"/>
   </g>
   <g id="patch_62">
    <path d="M 428.51664 373.60512 
C 432.935518 373.60512 437.174005 372.515413 440.298623 370.575995 
C 443.423241 368.636577 445.17888 366.005792 445.17888 363.26304 
C 445.17888 360.520288 443.423241 357.889503 440.298623 355.950085 
C 437.174005 354.010667 432.935518 352.92096 428.51664 352.92096 
C 424.097762 352.92096 419.859275 354.010667 416.734657 355.950085 
C 413.610039 357.889503 411.8544 360.520288 411.8544 363.26304 
C 411.8544 366.005792 413.610039 368.636577 416.734657 370.575995 
C 419.859275 372.515413 424.097762 373.60512 428.51664 373.60512 
z
" clip-path="url(#p736e3a3994)" style="fill: #ffffff; stroke: #334155; stroke-width: 1.6; stroke-linejoin: miter"/>
   </g>
   <g id="patch_63">
    <path d="M 428.51664 458.55792 
C 432.935518 458.55792 437.174005 457.468213 440.298623 455.528795 
C 443.423241 453.589377 445.17888 450.958592 445.17888 448.21584 
C 445.17888 445.473088 443.423241 442.842303 440.298623 440.902885 
C 437.174005 438.963467 432.935518 437.87376 428.51664 437.87376 
C 424.097762 437.87376 419.859275 438.963467 416.734657 440.902885 
C 413.610039 442.842303 411.8544 445.473088 411.8544 448.21584 
C 411.8544 450.958592 413.610039 453.589377 416.734657 455.528795 
C 419.859275 457.468213 424.097762 458.55792 428.51664 458.55792 
z
" clip-path="url(#p736e3a3994)" style="fill: #ffffff; stroke: #b91c1c; stroke-width: 1.6; stroke-linejoin: miter"/>
   </g>
   <g id="patch_64">
    <path d="M 886.72824 215.8884 
C 891.147118 215.8884 895.385605 214.798693 898.510223 212.859275 
C 901.634841 210.919857 903.39048 208.289072 903.39048 205.54632 
C 903.39048 202.803568 901.634841 200.172783 898.510223 198.233365 
C 895.385605 196.293947 891.147118 195.20424 886.72824 195.20424 
C 882.309362 195.20424 878.070875 196.293947 874.946257 198.233365 
C 871.821639 200.172783 870.066 202.803568 870.066 205.54632 
C 870.066 208.289072 871.821639 210.919857 874.946257 212.859275 
C 878.070875 214.798693 882.309362 215.8884 886.72824 215.8884 
z
" clip-path="url(#p736e3a3994)" style="fill: #ffffff; stroke: #6d28d9; stroke-width: 1.6; stroke-linejoin: miter"/>
   </g>
   <g id="patch_65">
    <path d="M 886.72824 334.0836 
C 891.147118 334.0836 895.385605 332.993893 898.510223 331.054475 
C 901.634841 329.115057 903.39048 326.484272 903.39048 323.74152 
C 903.39048 320.998768 901.634841 318.367983 898.510223 316.428565 
C 895.385605 314.489147 891.147118 313.39944 886.72824 313.39944 
C 882.309362 313.39944 878.070875 314.489147 874.946257 316.428565 
C 871.821639 318.367983 870.066 320.998768 870.066 323.74152 
C 870.066 326.484272 871.821639 329.115057 874.946257 331.054475 
C 878.070875 332.993893 882.309362 334.0836 886.72824 334.0836 
z
" clip-path="url(#p736e3a3994)" style="fill: #ffffff; stroke: #a21caf; stroke-width: 1.6; stroke-linejoin: miter"/>
   </g>
   <g id="line2d_12">
    <path d="M 81.585 581.18544 
L 81.585 556.06896 
" clip-path="url(#p736e3a3994)" style="fill: none; stroke: #a16207; stroke-linecap: square"/>
   </g>
   <g id="line2d_13">
    <path d="M 182.7486 581.18544 
L 182.7486 556.06896 
" clip-path="url(#p736e3a3994)" style="fill: none; stroke: #a16207; stroke-linecap: square"/>
   </g>
   <g id="line2d_14">
    <path d="M 248.2074 581.18544 
L 248.2074 556.06896 
" clip-path="url(#p736e3a3994)" style="fill: none; stroke: #a16207; stroke-linecap: square"/>
   </g>
   <g id="line2d_15">
    <path d="M 349.371 581.18544 
L 349.371 556.06896 
" clip-path="url(#p736e3a3994)" style="fill: none; stroke: #a16207; stroke-linecap: square"/>
   </g>
   <g id="line2d_16">
    <path d="M 420.7806 581.18544 
L 420.7806 556.06896 
" clip-path="url(#p736e3a3994)" style="fill: none; stroke: #a16207; stroke-linecap: square"/>
   </g>
   <g id="line2d_17">
    <path d="M 521.9442 581.18544 
L 521.9442 556.06896 
" clip-path="url(#p736e3a3994)" style="fill: none; stroke: #a16207; stroke-linecap: square"/>
   </g>
   <g id="line2d_18">
    <path d="M 593.3538 581.18544 
L 593.3538 556.06896 
" clip-path="url(#p736e3a3994)" style="fill: none; stroke: #a16207; stroke-linecap: square"/>
   </g>
   <g id="line2d_19">
    <path d="M 694.5174 581.18544 
L 694.5174 556.06896 
" clip-path="url(#p736e3a3994)" style="fill: none; stroke: #a16207; stroke-linecap: square"/>
   </g>
   <g id="line2d_20">
    <path d="M 765.927 581.18544 
L 765.927 556.06896 
" clip-path="url(#p736e3a3994)" style="fill: none; stroke: #a16207; stroke-linecap: square"/>
   </g>
   <g id="line2d_21">
    <path d="M 867.0906 581.18544 
L 867.0906 556.06896 
" clip-path="url(#p736e3a3994)" style="fill: none; stroke: #a16207; stroke-linecap: square"/>
   </g>
   <g id="line2d_22">
    <path d="M 938.5002 581.18544 
L 938.5002 556.06896 
" clip-path="url(#p736e3a3994)" style="fill: none; stroke: #a16207; stroke-linecap: square"/>
   </g>
   <g id="line2d_23">
    <path d="M 1039.6638 581.18544 
L 1039.6638 556.06896 
" clip-path="url(#p736e3a3994)" style="fill: none; stroke: #a16207; stroke-linecap: square"/>
   </g>
   <g id="line2d_24">
    <path d="M 1093.221 581.18544 
L 1093.221 556.06896 
" clip-path="url(#p736e3a3994)" style="fill: none; stroke: #a16207; stroke-linecap: square"/>
   </g>
   <g id="line2d_25">
    <path d="M 1194.3846 581.18544 
L 1194.3846 556.06896 
" clip-path="url(#p736e3a3994)" style="fill: none; stroke: #a16207; stroke-linecap: square"/>
   </g>
   <g id="text_40">
    <text style="font-weight: 700; font-size: 8.4px; font-family: 'DejaVu Sans', 'Bitstream Vera Sans', 'Computer Modern Sans Serif', 'Lucida Grande', 'Verdana', 'Geneva', 'Lucid', 'Arial', 'Helvetica', 'Avant Garde', sans-serif; text-anchor: middle; fill: #0369a1" x="71.46864" y="123.280755" transform="rotate(-0 71.46864 123.280755)">0</text>
   </g>
   <g id="text_41">
    <text style="font-weight: 700; font-size: 8.4px; font-family: 'DejaVu Sans', 'Bitstream Vera Sans', 'Computer Modern Sans Serif', 'Lucida Grande', 'Verdana', 'Geneva', 'Lucid', 'Arial', 'Helvetica', 'Avant Garde', sans-serif; text-anchor: middle; fill: #0369a1" x="71.46864" y="229.656435" transform="rotate(-0 71.46864 229.656435)">1</text>
   </g>
   <g id="text_42">
    <text style="font-weight: 700; font-size: 8.4px; font-family: 'DejaVu Sans', 'Bitstream Vera Sans', 'Computer Modern Sans Serif', 'Lucida Grande', 'Verdana', 'Geneva', 'Lucid', 'Arial', 'Helvetica', 'Avant Garde', sans-serif; text-anchor: middle; fill: #0369a1" x="71.46864" y="336.032115" transform="rotate(-0 71.46864 336.032115)">2</text>
   </g>
   <g id="text_43">
    <text style="font-weight: 700; font-size: 8.4px; font-family: 'DejaVu Sans', 'Bitstream Vera Sans', 'Computer Modern Sans Serif', 'Lucida Grande', 'Verdana', 'Geneva', 'Lucid', 'Arial', 'Helvetica', 'Avant Garde', sans-serif; text-anchor: middle; fill: #0369a1" x="71.46864" y="442.407795" transform="rotate(-0 71.46864 442.407795)">3</text>
   </g>
   <g id="text_44">
    <text style="font-weight: 700; font-size: 9.5px; font-family: 'DejaVu Sans', 'Bitstream Vera Sans', 'Computer Modern Sans Serif', 'Lucida Grande', 'Verdana', 'Geneva', 'Lucid', 'Arial', 'Helvetica', 'Avant Garde', sans-serif; text-anchor: middle; fill: #1d4ed8" x="428.51664" y="122.845566" transform="rotate(-0 428.51664 122.845566)">A</text>
   </g>
   <g id="text_45">
    <text style="font-weight: 700; font-size: 9.5px; font-family: 'DejaVu Sans', 'Bitstream Vera Sans', 'Computer Modern Sans Serif', 'Lucida Grande', 'Verdana', 'Geneva', 'Lucid', 'Arial', 'Helvetica', 'Avant Garde', sans-serif; text-anchor: middle; fill: #15803d" x="428.51664" y="165.691326" transform="rotate(-0 428.51664 165.691326)">B</text>
   </g>
   <g id="text_46">
    <text style="font-weight: 700; font-size: 9.5px; font-family: 'DejaVu Sans', 'Bitstream Vera Sans', 'Computer Modern Sans Serif', 'Lucida Grande', 'Verdana', 'Geneva', 'Lucid', 'Arial', 'Helvetica', 'Avant Garde', sans-serif; text-anchor: middle; fill: #c2410c" x="428.51664" y="208.537086" transform="rotate(-0 428.51664 208.537086)">C</text>
   </g>
   <g id="text_47">
    <text style="font-weight: 700; font-size: 9.5px; font-family: 'DejaVu Sans', 'Bitstream Vera Sans', 'Computer Modern Sans Serif', 'Lucida Grande', 'Verdana', 'Geneva', 'Lucid', 'Arial', 'Helvetica', 'Avant Garde', sans-serif; text-anchor: middle; fill: #1d4ed8" x="428.51664" y="251.382846" transform="rotate(-0 428.51664 251.382846)">D</text>
   </g>
   <g id="text_48">
    <text style="font-weight: 700; font-size: 9.5px; font-family: 'DejaVu Sans', 'Bitstream Vera Sans', 'Computer Modern Sans Serif', 'Lucida Grande', 'Verdana', 'Geneva', 'Lucid', 'Arial', 'Helvetica', 'Avant Garde', sans-serif; text-anchor: middle; fill: #1d4ed8" x="428.51664" y="294.228606" transform="rotate(-0 428.51664 294.228606)">E</text>
   </g>
   <g id="text_49">
    <text style="font-weight: 700; font-size: 8.4px; font-family: 'DejaVu Sans', 'Bitstream Vera Sans', 'Computer Modern Sans Serif', 'Lucida Grande', 'Verdana', 'Geneva', 'Lucid', 'Arial', 'Helvetica', 'Avant Garde', sans-serif; text-anchor: middle; fill: #334155" x="428.51664" y="365.580915" transform="rotate(-0 428.51664 365.580915)">9</text>
   </g>
   <g id="text_50">
    <text style="font-weight: 700; font-size: 8.4px; font-family: 'DejaVu Sans', 'Bitstream Vera Sans', 'Computer Modern Sans Serif', 'Lucida Grande', 'Verdana', 'Geneva', 'Lucid', 'Arial', 'Helvetica', 'Avant Garde', sans-serif; text-anchor: middle; fill: #b91c1c" x="428.51664" y="450.533715" transform="rotate(-0 428.51664 450.533715)">10</text>
   </g>
   <g id="text_51">
    <text style="font-weight: 700; font-size: 8.4px; font-family: 'DejaVu Sans', 'Bitstream Vera Sans', 'Computer Modern Sans Serif', 'Lucida Grande', 'Verdana', 'Geneva', 'Lucid', 'Arial', 'Helvetica', 'Avant Garde', sans-serif; text-anchor: middle; fill: #6d28d9" x="886.72824" y="207.864195" transform="rotate(-0 886.72824 207.864195)">11</text>
   </g>
   <g id="text_52">
    <text style="font-weight: 700; font-size: 8.4px; font-family: 'DejaVu Sans', 'Bitstream Vera Sans', 'Computer Modern Sans Serif', 'Lucida Grande', 'Verdana', 'Geneva', 'Lucid', 'Arial', 'Helvetica', 'Avant Garde', sans-serif; text-anchor: middle; fill: #a21caf" x="886.72824" y="326.059395" transform="rotate(-0 886.72824 326.059395)">12</text>
   </g>
   <g id="legend_1">
    <g id="patch_66">
     <path d="M 227.304 745.4136 
L 977.256 745.4136 
Q 978.936 745.4136 978.936 743.7336 
L 978.936 732.243975 
Q 978.936 730.563975 977.256 730.563975 
L 227.304 730.563975 
Q 225.624 730.563975 225.624 732.243975 
L 225.624 743.7336 
Q 225.624 745.4136 227.304 745.4136 
z
" style="fill: #ffffff; opacity: 0.8; stroke: #64748b; stroke-width: 0.8; stroke-linejoin: miter"/>
    </g>
    <g id="patch_67">
     <path d="M 228.984 740.306662 
L 242.424 740.306662 
L 242.424 734.426662 
L 228.984 734.426662 
z
" style="fill: #bfdbfe; stroke: #1d4ed8; stroke-width: 1.6; stroke-linejoin: miter"/>
    </g>
    <g id="text_53">
     <text style="font-size: 8.4px; font-family: 'DejaVu Sans', 'Bitstream Vera Sans', 'Computer Modern Sans Serif', 'Lucida Grande', 'Verdana', 'Geneva', 'Lucid', 'Arial', 'Helvetica', 'Avant Garde', sans-serif; text-anchor: start" x="249.144" y="740.306662" transform="rotate(-0 249.144 740.306662)">Primary track</text>
    </g>
    <g id="patch_68">
     <path d="M 314.04975 740.306662 
L 327.48975 740.306662 
L 327.48975 734.426662 
L 314.04975 734.426662 
z
" style="fill: #bbf7d0; stroke-dasharray: 5.92,2.56; stroke-dashoffset: 0; stroke: #15803d; stroke-width: 1.6; stroke-linejoin: miter"/>
    </g>
    <g id="text_54">
     <text style="font-size: 8.4px; font-family: 'DejaVu Sans', 'Bitstream Vera Sans', 'Computer Modern Sans Serif', 'Lucida Grande', 'Verdana', 'Geneva', 'Lucid', 'Arial', 'Helvetica', 'Avant Garde', sans-serif; text-anchor: start" x="334.20975" y="740.306662" transform="rotate(-0 334.20975 740.306662)">Secondary track</text>
    </g>
    <g id="patch_69">
     <path d="M 411.144562 740.306662 
L 424.584562 740.306662 
L 424.584562 734.426662 
L 411.144562 734.426662 
z
" style="fill: #fed7aa; stroke-dasharray: 1.6,2.64; stroke-dashoffset: 0; stroke: #c2410c; stroke-width: 1.6; stroke-linejoin: miter"/>
    </g>
    <g id="text_55">
     <text style="font-size: 8.4px; font-family: 'DejaVu Sans', 'Bitstream Vera Sans', 'Computer Modern Sans Serif', 'Lucida Grande', 'Verdana', 'Geneva', 'Lucid', 'Arial', 'Helvetica', 'Avant Garde', sans-serif; text-anchor: start" x="431.304562" y="740.306662" transform="rotate(-0 431.304562 740.306662)">Diagnostic track</text>
    </g>
    <g id="patch_70">
     <path d="M 508.117312 740.306662 
L 521.557312 740.306662 
L 521.557312 734.426662 
L 508.117312 734.426662 
z
" style="fill: #e0f2fe; stroke: #0369a1; stroke-width: 1.4; stroke-linejoin: miter"/>
    </g>
    <g id="text_56">
     <text style="font-size: 8.4px; font-family: 'DejaVu Sans', 'Bitstream Vera Sans', 'Computer Modern Sans Serif', 'Lucida Grande', 'Verdana', 'Geneva', 'Lucid', 'Arial', 'Helvetica', 'Avant Garde', sans-serif; text-anchor: start" x="528.277312" y="740.306662" transform="rotate(-0 528.277312 740.306662)">Data preparation</text>
    </g>
    <g id="patch_71">
     <path d="M 608.339812 740.306662 
L 621.779813 740.306662 
L 621.779813 734.426662 
L 608.339812 734.426662 
z
" style="fill: #e2e8f0; stroke: #334155; stroke-width: 1.4; stroke-linejoin: miter"/>
    </g>
    <g id="text_57">
     <text style="font-size: 8.4px; font-family: 'DejaVu Sans', 'Bitstream Vera Sans', 'Computer Modern Sans Serif', 'Lucida Grande', 'Verdana', 'Geneva', 'Lucid', 'Arial', 'Helvetica', 'Avant Garde', sans-serif; text-anchor: start" x="628.499812" y="740.306662" transform="rotate(-0 628.499812 740.306662)">Method wrappers</text>
    </g>
    <g id="patch_72">
     <path d="M 710.208188 740.306662 
L 723.648188 740.306662 
L 723.648188 734.426662 
L 710.208188 734.426662 
z
" style="fill: #fee2e2; stroke: #b91c1c; stroke-width: 1.4; stroke-linejoin: miter"/>
    </g>
    <g id="text_58">
     <text style="font-size: 8.4px; font-family: 'DejaVu Sans', 'Bitstream Vera Sans', 'Computer Modern Sans Serif', 'Lucida Grande', 'Verdana', 'Geneva', 'Lucid', 'Arial', 'Helvetica', 'Avant Garde', sans-serif; text-anchor: start" x="730.368187" y="740.306662" transform="rotate(-0 730.368187 740.306662)">Execution</text>
    </g>
    <g id="patch_73">
     <path d="M 779.985937 740.306662 
L 793.425938 740.306662 
L 793.425938 734.426662 
L 779.985937 734.426662 
z
" style="fill: #ede9fe; stroke: #6d28d9; stroke-width: 1.4; stroke-linejoin: miter"/>
    </g>
    <g id="text_59">
     <text style="font-size: 8.4px; font-family: 'DejaVu Sans', 'Bitstream Vera Sans', 'Computer Modern Sans Serif', 'Lucida Grande', 'Verdana', 'Geneva', 'Lucid', 'Arial', 'Helvetica', 'Avant Garde', sans-serif; text-anchor: start" x="800.145937" y="740.306662" transform="rotate(-0 800.145937 740.306662)">Evaluation</text>
    </g>
    <g id="patch_74">
     <path d="M 852.86775 740.306662 
L 866.30775 740.306662 
L 866.30775 734.426662 
L 852.86775 734.426662 
z
" style="fill: #fae8ff; stroke: #a21caf; stroke-width: 1.4; stroke-linejoin: miter"/>
    </g>
    <g id="text_60">
     <text style="font-size: 8.4px; font-family: 'DejaVu Sans', 'Bitstream Vera Sans', 'Computer Modern Sans Serif', 'Lucida Grande', 'Verdana', 'Geneva', 'Lucid', 'Arial', 'Helvetica', 'Avant Garde', sans-serif; text-anchor: start" x="873.02775" y="740.306662" transform="rotate(-0 873.02775 740.306662)">Figures</text>
    </g>
    <g id="patch_75">
     <path d="M 911.448562 740.306662 
L 924.888563 740.306662 
L 924.888563 734.426662 
L 911.448562 734.426662 
z
" style="fill: #fef9c3; stroke: #a16207; stroke-linejoin: miter"/>
    </g>
    <g id="text_61">
     <text style="font-size: 8.4px; font-family: 'DejaVu Sans', 'Bitstream Vera Sans', 'Computer Modern Sans Serif', 'Lucida Grande', 'Verdana', 'Geneva', 'Lucid', 'Arial', 'Helvetica', 'Avant Garde', sans-serif; text-anchor: start" x="931.608562" y="740.306662" transform="rotate(-0 931.608562 740.306662)">Data store</text>
    </g>
   </g>
  </g>
 </g>
 <defs>
  <clipPath id="p736e3a3994">
   <rect x="7.2" y="7.2" width="1190.16" height="738.72"/>
  </clipPath>
 </defs>
</svg>
